# xmcd
#
# Track frame offsets:
#	150
#	24480
#	48820
#	63137
#	84385
#	101900
#	125632
#	136850
#	147906
#	168975
#	180266
#	198501
#	210104
#
# Disc length: 2980 seconds
#
# Revision: 1
# Processed by: cddbd v1.5.2PL0 Copyright (c) Steve Scherf et al.
# Submitted via: audiograbber 1.82.02
#
DISCID=a60ba20d
DTITLE=Ronnie - Cork In The Ocean
DYEAR=2007
DGENRE=Country
TTITLE0=Together Forever
TTITLE1=Trust In The Process Of Life
TTITLE2=She's My Sophisticated Lady
TTITLE3=Never Give Up
TTITLE4=Look At The Big Picture
TTITLE5=Simply Walking With Nature
TTITLE6=I'm Dreaming Of You Tonight
TTITLE7=Everyone Needs A Friend
TTITLE8=I'll Be Forever In Your Debt
TTITLE9=Open Up My Eyes
TTITLE10=I'm Coming To You
TTITLE11=Cork In The Ocean
TTITLE12=Crest Of A Wave
EXTD=
EXTT0=
EXTT1=
EXTT2=
EXTT3=
EXTT4=
EXTT5=
EXTT6=
EXTT7=
EXTT8=
EXTT9=
EXTT10=
EXTT11=
EXTT12=
PLAYORDER=
